<svg id="visual" viewBox="0 0 900 600" width="900" height="600" xmlns="http://www.w3.org/2000/svg" xmlns:xlink="http://www.w3.org/1999/xlink" version="1.1"><rect x="0" y="0" width="900" height="600" fill="#11155c"></rect><g transform="translate(456.8951682779422 294.4695794451257)"><path d="M108.1 -162.8C148.5 -142.1 195.7 -126.5 214.6 -95.1C233.5 -63.6 224.2 -16.4 212.5 27.1C200.9 70.6 187 110.3 161.8 141.4C136.7 172.6 100.3 195.2 58.1 215.9C15.8 236.7 -32.4 255.5 -77.9 249.5C-123.5 243.4 -166.4 212.4 -185.5 171.3C-204.6 130.3 -199.8 79.2 -209.6 28.5C-219.4 -22.2 -243.9 -72.4 -238.4 -119.1C-233 -165.8 -197.6 -209.1 -152.9 -227.8C-108.1 -246.6 -54.1 -240.8 -10.1 -225C33.8 -209.2 67.6 -183.5 108.1 -162.8" fill="#193898"></path></g></svg>