<svg id="visual" viewBox="0 0 900 600" width="900" height="600" xmlns="http://www.w3.org/2000/svg" xmlns:xlink="http://www.w3.org/1999/xlink" version="1.1"><rect x="0" y="0" width="900" height="600" fill="#fbfbfb"></rect><path d="M0 388L21.5 383.3C43 378.7 86 369.3 128.8 377.2C171.7 385 214.3 410 257.2 409.2C300 408.3 343 381.7 385.8 382.7C428.7 383.7 471.3 412.3 514.2 412.8C557 413.3 600 385.7 642.8 378.5C685.7 371.3 728.3 384.7 771.2 390.2C814 395.7 857 393.3 878.5 392.2L900 391L900 601L878.5 601C857 601 814 601 771.2 601C728.3 601 685.7 601 642.8 601C600 601 557 601 514.2 601C471.3 601 428.7 601 385.8 601C343 601 300 601 257.2 601C214.3 601 171.7 601 128.8 601C86 601 43 601 21.5 601L0 601Z" fill="#2063c8"></path><path d="M0 399L21.5 408.5C43 418 86 437 128.8 440.2C171.7 443.3 214.3 430.7 257.2 424C300 417.3 343 416.7 385.8 422.3C428.7 428 471.3 440 514.2 437.7C557 435.3 600 418.7 642.8 420.7C685.7 422.7 728.3 443.3 771.2 444.3C814 445.3 857 426.7 878.5 417.3L900 408L900 601L878.5 601C857 601 814 601 771.2 601C728.3 601 685.7 601 642.8 601C600 601 557 601 514.2 601C471.3 601 428.7 601 385.8 601C343 601 300 601 257.2 601C214.3 601 171.7 601 128.8 601C86 601 43 601 21.5 601L0 601Z" fill="#224eac"></path><path d="M0 458L21.5 460.7C43 463.3 86 468.7 128.8 472.3C171.7 476 214.3 478 257.2 482.7C300 487.3 343 494.7 385.8 488.7C428.7 482.7 471.3 463.3 514.2 456.7C557 450 600 456 642.8 459.5C685.7 463 728.3 464 771.2 464.7C814 465.3 857 465.7 878.5 465.8L900 466L900 601L878.5 601C857 601 814 601 771.2 601C728.3 601 685.7 601 642.8 601C600 601 557 601 514.2 601C471.3 601 428.7 601 385.8 601C343 601 300 601 257.2 601C214.3 601 171.7 601 128.8 601C86 601 43 601 21.5 601L0 601Z" fill="#1f3a90"></path><path d="M0 536L21.5 535.8C43 535.7 86 535.3 128.8 530.3C171.7 525.3 214.3 515.7 257.2 507C300 498.3 343 490.7 385.8 488.8C428.7 487 471.3 491 514.2 495.2C557 499.3 600 503.7 642.8 502.2C685.7 500.7 728.3 493.3 771.2 493.2C814 493 857 500 878.5 503.5L900 507L900 601L878.5 601C857 601 814 601 771.2 601C728.3 601 685.7 601 642.8 601C600 601 557 601 514.2 601C471.3 601 428.7 601 385.8 601C343 601 300 601 257.2 601C214.3 601 171.7 601 128.8 601C86 601 43 601 21.5 601L0 601Z" fill="#192776"></path><path d="M0 525L21.5 531.5C43 538 86 551 128.8 558.8C171.7 566.7 214.3 569.3 257.2 565.7C300 562 343 552 385.8 546.8C428.7 541.7 471.3 541.3 514.2 545.5C557 549.7 600 558.3 642.8 558.3C685.7 558.3 728.3 549.7 771.2 550.2C814 550.7 857 560.3 878.5 565.2L900 570L900 601L878.5 601C857 601 814 601 771.2 601C728.3 601 685.7 601 642.8 601C600 601 557 601 514.2 601C471.3 601 428.7 601 385.8 601C343 601 300 601 257.2 601C214.3 601 171.7 601 128.8 601C86 601 43 601 21.5 601L0 601Z" fill="#11155c"></path></svg>